<?xml version="1.0" encoding="UTF-8" standalone="no"?>
<!-- Created with Inkscape (http://www.inkscape.org/) -->
<svg
   xmlns:dc="http://purl.org/dc/elements/1.1/"
   xmlns:cc="http://creativecommons.org/ns#"
   xmlns:rdf="http://www.w3.org/1999/02/22-rdf-syntax-ns#"
   xmlns:svg="http://www.w3.org/2000/svg"
   xmlns="http://www.w3.org/2000/svg"
   xmlns:xlink="http://www.w3.org/1999/xlink"
   xmlns:sodipodi="http://sodipodi.sourceforge.net/DTD/sodipodi-0.dtd"
   xmlns:inkscape="http://www.inkscape.org/namespaces/inkscape"
   width="48.000000px"
   height="48.000000px"
   id="svg3077"
   sodipodi:version="0.32"
   inkscape:version="0.46"
   sodipodi:docbase="/home/jimmac/src/cvs/tango-icon-theme/scalable/devices"
   sodipodi:docname="basenji.svg"
   inkscape:output_extension="org.inkscape.output.svg.inkscape">
  <defs
     id="defs3">
    <inkscape:perspective
       sodipodi:type="inkscape:persp3d"
       inkscape:vp_x="0 : 24 : 1"
       inkscape:vp_y="0 : 1000 : 0"
       inkscape:vp_z="48 : 24 : 1"
       inkscape:persp3d-origin="24 : 16 : 1"
       id="perspective2813" />
    <linearGradient
       inkscape:collect="always"
       id="linearGradient23419">
      <stop
         style="stop-color:#000000;stop-opacity:1;"
         offset="0"
         id="stop23421" />
      <stop
         style="stop-color:#000000;stop-opacity:0;"
         offset="1"
         id="stop23423" />
    </linearGradient>
    <linearGradient
       id="linearGradient3435"
       gradientUnits="userSpaceOnUse"
       x1="12.2744"
       y1="32.4165"
       x2="35.3912"
       y2="14.2033">
      <stop
         offset="0.0000000"
         style="stop-color:#ffffc8;stop-opacity:1.0000000;"
         id="stop3437" />
      <stop
         offset="1.0000000"
         style="stop-color:#9a91ef;stop-opacity:0.0000000;"
         id="stop3439" />
    </linearGradient>
    <linearGradient
       y2="14.2033"
       x2="35.3912"
       y1="32.4165"
       x1="12.2744"
       gradientUnits="userSpaceOnUse"
       id="linearGradient3421">
      <stop
         id="stop3423"
         style="stop-color:#ffffff;stop-opacity:1.0000000;"
         offset="0.0000000" />
      <stop
         id="stop3427"
         style="stop-color:#b8c04c;stop-opacity:0.0000000;"
         offset="1.0000000" />
    </linearGradient>
    <linearGradient
       id="linearGradient3406"
       gradientUnits="userSpaceOnUse"
       x1="12.2744"
       y1="32.4165"
       x2="35.3912"
       y2="14.2033">
      <stop
         offset="0.0000000"
         style="stop-color:#b307ff;stop-opacity:0.82178217;"
         id="stop3408" />
      <stop
         offset="1.0000000"
         style="stop-color:#f0ff8b;stop-opacity:0.64356434;"
         id="stop3410" />
      <stop
         offset="1.0000000"
         style="stop-color:#ffffff;stop-opacity:0.0000000;"
         id="stop3412" />
    </linearGradient>
    <linearGradient
       y2="14.2033"
       x2="35.3912"
       y1="32.4165"
       x1="12.2744"
       gradientUnits="userSpaceOnUse"
       id="linearGradient3394">
      <stop
         id="stop3396"
         style="stop-color:#fff307;stop-opacity:1.0000000;"
         offset="0.0000000" />
      <stop
         id="stop3398"
         style="stop-color:#166eff;stop-opacity:1.0000000;"
         offset="0.50000000" />
      <stop
         id="stop3400"
         style="stop-color:#ffffff;stop-opacity:0.0000000;"
         offset="1.0000000" />
    </linearGradient>
    <linearGradient
       inkscape:collect="always"
       id="linearGradient6036">
      <stop
         style="stop-color:#ffffff;stop-opacity:1;"
         offset="0"
         id="stop6038" />
      <stop
         style="stop-color:#ffffff;stop-opacity:0;"
         offset="1"
         id="stop6040" />
    </linearGradient>
    <linearGradient
       inkscape:collect="always"
       id="linearGradient6028">
      <stop
         style="stop-color:#ffffff;stop-opacity:1;"
         offset="0"
         id="stop6030" />
      <stop
         style="stop-color:#ffffff;stop-opacity:0;"
         offset="1"
         id="stop6032" />
    </linearGradient>
    <linearGradient
       id="linearGradient4236">
      <stop
         style="stop-color:#ffffff;stop-opacity:0.32673267;"
         offset="0.0000000"
         id="stop4238" />
      <stop
         style="stop-color:#ffffff;stop-opacity:0.60396039;"
         offset="1.0000000"
         id="stop4240" />
    </linearGradient>
    <linearGradient
       id="aigrd2"
       gradientUnits="userSpaceOnUse"
       x1="12.2744"
       y1="32.4165"
       x2="35.3912"
       y2="14.2033">
      <stop
         offset="0"
         style="stop-color:#FBFBFB"
         id="stop3043" />
      <stop
         offset="0.5"
         style="stop-color:#B6B6B6"
         id="stop3045" />
      <stop
         offset="1"
         style="stop-color:#E4E4E4"
         id="stop3047" />
    </linearGradient>
    <linearGradient
       id="aigrd1"
       gradientUnits="userSpaceOnUse"
       x1="14.9966"
       y1="11.1885"
       x2="32.511"
       y2="34.3075">
      <stop
         offset="0"
         style="stop-color:#EBEBEB"
         id="stop3034" />
      <stop
         offset="0.5"
         style="stop-color:#FFFFFF"
         id="stop3036" />
      <stop
         offset="1"
         style="stop-color:#EBEBEB"
         id="stop3038" />
    </linearGradient>
    <linearGradient
       inkscape:collect="always"
       xlink:href="#aigrd1"
       id="linearGradient3912"
       gradientUnits="userSpaceOnUse"
       x1="14.9966"
       y1="11.1885"
       x2="32.511"
       y2="34.3075"
       gradientTransform="matrix(1.190476,0.000000,0.000000,1.190476,-4.224424,-2.500000)" />
    <linearGradient
       inkscape:collect="always"
       xlink:href="#linearGradient4236"
       id="linearGradient4222"
       x1="21.125000"
       y1="14.625000"
       x2="29.000000"
       y2="28.000000"
       gradientUnits="userSpaceOnUse"
       gradientTransform="matrix(1.250000,0.000000,0.000000,1.250000,-5.652995,-2.604165)" />
    <linearGradient
       inkscape:collect="always"
       xlink:href="#linearGradient4236"
       id="linearGradient4224"
       x1="21.125000"
       y1="14.625000"
       x2="29.000000"
       y2="28.000000"
       gradientUnits="userSpaceOnUse"
       gradientTransform="matrix(1.250000,0.000000,0.000000,1.250000,-5.652995,-2.604165)" />
    <linearGradient
       inkscape:collect="always"
       xlink:href="#aigrd2"
       id="linearGradient4242"
       gradientUnits="userSpaceOnUse"
       gradientTransform="matrix(1.190476,0.000000,0.000000,1.190476,-4.224424,-2.500001)"
       x1="12.2744"
       y1="32.4165"
       x2="35.3912"
       y2="14.2033" />
    <linearGradient
       inkscape:collect="always"
       xlink:href="#linearGradient6028"
       id="linearGradient6034"
       x1="28.702885"
       y1="31.494707"
       x2="17.742729"
       y2="18.366575"
       gradientUnits="userSpaceOnUse" />
    <linearGradient
       inkscape:collect="always"
       xlink:href="#linearGradient6036"
       id="linearGradient6042"
       x1="10.501720"
       y1="3.6100161"
       x2="48.798885"
       y2="54.698483"
       gradientUnits="userSpaceOnUse" />
    <radialGradient
       gradientTransform="matrix(0.848684,0.958020,-0.782119,0.692834,18.69147,-20.52578)"
       gradientUnits="userSpaceOnUse"
       r="21.333334"
       fy="27.569166"
       fx="37.751469"
       cy="27.569166"
       cx="37.751469"
       id="radialGradient3392"
       xlink:href="#linearGradient3394"
       inkscape:collect="always" />
    <radialGradient
       r="21.333334"
       fy="48.238270"
       fx="53.556889"
       cy="48.238270"
       cx="53.556889"
       gradientTransform="matrix(0.158450,-0.158988,0.432907,0.431441,-2.723645,15.00107)"
       gradientUnits="userSpaceOnUse"
       id="radialGradient3429"
       xlink:href="#linearGradient3421"
       inkscape:collect="always" />
    <radialGradient
       r="21.333334"
       fy="33.377594"
       fx="16.885271"
       cy="33.377594"
       cx="16.885271"
       gradientTransform="matrix(5.184267e-3,-0.122860,0.544548,2.297824e-2,0.957234,26.30756)"
       gradientUnits="userSpaceOnUse"
       id="radialGradient3433"
       xlink:href="#linearGradient3435"
       inkscape:collect="always" />
    <radialGradient
       r="21.333334"
       fy="21.618015"
       fx="35.511295"
       cy="21.618015"
       cx="35.511295"
       gradientTransform="matrix(0.105916,-1.914240e-2,0.104789,0.579807,17.13693,7.115158)"
       gradientUnits="userSpaceOnUse"
       id="radialGradient3443"
       xlink:href="#linearGradient3435"
       inkscape:collect="always" />
    <radialGradient
       gradientTransform="matrix(-5.048220e-2,1.387847e-2,-0.128440,-0.467196,35.41257,39.44172)"
       r="21.333334"
       fy="23.914305"
       fx="133.84108"
       cy="23.914305"
       cx="133.84108"
       gradientUnits="userSpaceOnUse"
       id="radialGradient3447"
       xlink:href="#linearGradient3435"
       inkscape:collect="always" />
    <radialGradient
       r="21.333334"
       fy="38.807304"
       fx="26.137741"
       cy="38.807304"
       cx="26.137741"
       gradientTransform="matrix(0.769501,-1.242500,0.670300,0.415141,-21.77857,41.36563)"
       gradientUnits="userSpaceOnUse"
       id="radialGradient3449"
       xlink:href="#linearGradient3406"
       inkscape:collect="always" />
    <linearGradient
       inkscape:collect="always"
       xlink:href="#aigrd1"
       id="linearGradient23343"
       gradientUnits="userSpaceOnUse"
       gradientTransform="matrix(1.190476,0,0,1.190476,-4.224424,-2.5)"
       x1="14.9966"
       y1="11.1885"
       x2="32.511"
       y2="34.3075" />
    <linearGradient
       inkscape:collect="always"
       xlink:href="#aigrd2"
       id="linearGradient23345"
       gradientUnits="userSpaceOnUse"
       gradientTransform="matrix(1.190476,0,0,1.190476,-4.224424,-2.500001)"
       x1="12.2744"
       y1="32.4165"
       x2="35.3912"
       y2="14.2033" />
    <linearGradient
       inkscape:collect="always"
       xlink:href="#linearGradient4236"
       id="linearGradient23347"
       gradientUnits="userSpaceOnUse"
       gradientTransform="matrix(1.25,0,0,1.25,-5.652995,-2.604165)"
       x1="21.125000"
       y1="14.625000"
       x2="29.000000"
       y2="28.000000" />
    <linearGradient
       inkscape:collect="always"
       xlink:href="#linearGradient4236"
       id="linearGradient23349"
       gradientUnits="userSpaceOnUse"
       gradientTransform="matrix(1.25,0,0,1.25,-5.652995,-2.604165)"
       x1="21.125000"
       y1="14.625000"
       x2="29.000000"
       y2="28.000000" />
    <linearGradient
       inkscape:collect="always"
       xlink:href="#linearGradient6036"
       id="linearGradient23351"
       gradientUnits="userSpaceOnUse"
       x1="10.501720"
       y1="3.6100161"
       x2="48.798885"
       y2="54.698483" />
    <linearGradient
       inkscape:collect="always"
       xlink:href="#linearGradient6028"
       id="linearGradient23353"
       gradientUnits="userSpaceOnUse"
       x1="28.702885"
       y1="31.494707"
       x2="17.742729"
       y2="18.366575" />
    <radialGradient
       inkscape:collect="always"
       xlink:href="#linearGradient3394"
       id="radialGradient23355"
       gradientUnits="userSpaceOnUse"
       gradientTransform="matrix(0.848684,0.95802,-0.782119,0.692834,18.69147,-20.52578)"
       cx="37.751469"
       cy="27.569166"
       fx="37.751469"
       fy="27.569166"
       r="21.333334" />
    <radialGradient
       inkscape:collect="always"
       xlink:href="#linearGradient3406"
       id="radialGradient23357"
       gradientUnits="userSpaceOnUse"
       gradientTransform="matrix(0.769501,-1.2425,0.6703,0.415141,-21.77857,41.36563)"
       cx="26.137741"
       cy="38.807304"
       fx="26.137741"
       fy="38.807304"
       r="21.333334" />
    <radialGradient
       inkscape:collect="always"
       xlink:href="#linearGradient3421"
       id="radialGradient23359"
       gradientUnits="userSpaceOnUse"
       gradientTransform="matrix(0.15845,-0.158988,0.432907,0.431441,-2.723645,15.00107)"
       cx="53.556889"
       cy="48.238270"
       fx="53.556889"
       fy="48.238270"
       r="21.333334" />
    <radialGradient
       inkscape:collect="always"
       xlink:href="#linearGradient3435"
       id="radialGradient23361"
       gradientUnits="userSpaceOnUse"
       gradientTransform="matrix(5.184267e-3,-0.12286,0.544548,2.297824e-2,0.957234,26.30756)"
       cx="16.885271"
       cy="33.377594"
       fx="16.885271"
       fy="33.377594"
       r="21.333334" />
    <radialGradient
       inkscape:collect="always"
       xlink:href="#linearGradient3435"
       id="radialGradient23363"
       gradientUnits="userSpaceOnUse"
       gradientTransform="matrix(0.105916,-1.91424e-2,0.104789,0.579807,17.13693,7.115158)"
       cx="35.511295"
       cy="21.618015"
       fx="35.511295"
       fy="21.618015"
       r="21.333334" />
    <radialGradient
       inkscape:collect="always"
       xlink:href="#linearGradient3435"
       id="radialGradient23365"
       gradientUnits="userSpaceOnUse"
       gradientTransform="matrix(-5.04822e-2,1.387847e-2,-0.12844,-0.467196,35.41257,39.44172)"
       cx="133.84108"
       cy="23.914305"
       fx="133.84108"
       fy="23.914305"
       r="21.333334" />
    <radialGradient
       inkscape:collect="always"
       xlink:href="#linearGradient3435"
       id="radialGradient23368"
       gradientUnits="userSpaceOnUse"
       gradientTransform="matrix(-5.04822e-2,1.387847e-2,-0.12844,-0.467196,33.909968,39.44172)"
       cx="133.84108"
       cy="23.914305"
       fx="133.84108"
       fy="23.914305"
       r="21.333334" />
    <radialGradient
       inkscape:collect="always"
       xlink:href="#linearGradient3435"
       id="radialGradient23371"
       gradientUnits="userSpaceOnUse"
       gradientTransform="matrix(0.105916,-1.91424e-2,0.104789,0.579807,15.634328,7.115158)"
       cx="35.511295"
       cy="21.618015"
       fx="35.511295"
       fy="21.618015"
       r="21.333334" />
    <radialGradient
       inkscape:collect="always"
       xlink:href="#linearGradient3435"
       id="radialGradient23374"
       gradientUnits="userSpaceOnUse"
       gradientTransform="matrix(5.184267e-3,-0.12286,0.544548,2.297824e-2,-0.5453679,26.30756)"
       cx="16.885271"
       cy="33.377594"
       fx="16.885271"
       fy="33.377594"
       r="21.333334" />
    <radialGradient
       inkscape:collect="always"
       xlink:href="#linearGradient3421"
       id="radialGradient23377"
       gradientUnits="userSpaceOnUse"
       gradientTransform="matrix(0.15845,-0.158988,0.432907,0.431441,-4.2262469,15.00107)"
       cx="53.556889"
       cy="48.238270"
       fx="53.556889"
       fy="48.238270"
       r="21.333334" />
    <radialGradient
       inkscape:collect="always"
       xlink:href="#linearGradient3406"
       id="radialGradient23380"
       gradientUnits="userSpaceOnUse"
       gradientTransform="matrix(0.769501,-1.2425,0.6703,0.415141,-23.281172,41.36563)"
       cx="26.137741"
       cy="38.807304"
       fx="26.137741"
       fy="38.807304"
       r="21.333334" />
    <radialGradient
       inkscape:collect="always"
       xlink:href="#linearGradient3394"
       id="radialGradient23383"
       gradientUnits="userSpaceOnUse"
       gradientTransform="matrix(0.848684,0.95802,-0.782119,0.692834,17.188868,-20.52578)"
       cx="37.751469"
       cy="27.569166"
       fx="37.751469"
       fy="27.569166"
       r="21.333334" />
    <linearGradient
       inkscape:collect="always"
       xlink:href="#linearGradient6036"
       id="linearGradient23387"
       gradientUnits="userSpaceOnUse"
       x1="10.501720"
       y1="3.6100161"
       x2="48.798885"
       y2="54.698483"
       gradientTransform="translate(-1.5026019,0)" />
    <linearGradient
       inkscape:collect="always"
       xlink:href="#linearGradient4236"
       id="linearGradient23390"
       gradientUnits="userSpaceOnUse"
       gradientTransform="matrix(1.25,0,0,1.25,-7.1555969,-2.604165)"
       x1="21.125000"
       y1="14.625000"
       x2="29.000000"
       y2="28.000000" />
    <linearGradient
       inkscape:collect="always"
       xlink:href="#linearGradient4236"
       id="linearGradient23393"
       gradientUnits="userSpaceOnUse"
       gradientTransform="matrix(1.25,0,0,1.25,-7.1555969,-2.604165)"
       x1="21.125000"
       y1="14.625000"
       x2="29.000000"
       y2="28.000000" />
    <linearGradient
       inkscape:collect="always"
       xlink:href="#aigrd2"
       id="linearGradient23397"
       gradientUnits="userSpaceOnUse"
       gradientTransform="matrix(1.190476,0,0,1.190476,-5.7270259,-2.500001)"
       x1="12.2744"
       y1="32.4165"
       x2="35.3912"
       y2="14.2033" />
    <linearGradient
       inkscape:collect="always"
       xlink:href="#aigrd1"
       id="linearGradient23400"
       gradientUnits="userSpaceOnUse"
       gradientTransform="matrix(1.190476,0,0,1.190476,-5.7270259,-2.5)"
       x1="14.9966"
       y1="11.1885"
       x2="32.511"
       y2="34.3075" />
    <radialGradient
       inkscape:collect="always"
       xlink:href="#linearGradient23419"
       id="radialGradient23425"
       cx="23.334524"
       cy="41.63604"
       fx="23.334524"
       fy="41.63604"
       r="22.627417"
       gradientTransform="matrix(1,0,0,0.25,0,31.22703)"
       gradientUnits="userSpaceOnUse" />
    <linearGradient
       inkscape:collect="always"
       xlink:href="#linearGradient2846"
       id="linearGradient2852"
       x1="27.366341"
       y1="26.580296"
       x2="31.335964"
       y2="30.557772"
       gradientUnits="userSpaceOnUse"
       gradientTransform="matrix(0.8163376,0,0,0.8163376,5.1302643,-3.2302317)" />
    <radialGradient
       inkscape:collect="always"
       xlink:href="#linearGradient4477"
       id="radialGradient2842"
       gradientUnits="userSpaceOnUse"
       gradientTransform="matrix(1,0,0,0.237968,0,28.93278)"
       cx="24.130018"
       cy="37.967922"
       fx="24.130018"
       fy="37.967922"
       r="16.528622" />
    <linearGradient
       inkscape:collect="always"
       xlink:href="#linearGradient2366"
       id="linearGradient2372"
       x1="18.292673"
       y1="13.602121"
       x2="17.500893"
       y2="25.743469"
       gradientUnits="userSpaceOnUse" />
    <radialGradient
       gradientUnits="userSpaceOnUse"
       gradientTransform="matrix(1,0,0,0.237968,0,28.93278)"
       r="16.528622"
       fy="37.967922"
       fx="24.130018"
       cy="37.967922"
       cx="24.130018"
       id="radialGradient4493"
       xlink:href="#linearGradient4487"
       inkscape:collect="always" />
    <radialGradient
       gradientUnits="userSpaceOnUse"
       gradientTransform="matrix(2.1167335,0,0,1.8384774,-15.326954,-18.692484)"
       r="6.6562500"
       fy="13.078408"
       fx="15.414371"
       cy="13.078408"
       cx="15.414371"
       id="radialGradient4473"
       xlink:href="#linearGradient4467"
       inkscape:collect="always" />
    <radialGradient
       gradientUnits="userSpaceOnUse"
       r="8.3085051"
       fy="21.817987"
       fx="18.240929"
       cy="21.817987"
       cx="18.240929"
       id="radialGradient4460"
       xlink:href="#linearGradient4454"
       inkscape:collect="always" />
    <linearGradient
       gradientTransform="matrix(1.0894785,0,0,1.0541303,-0.5627455,-9.3206482)"
       gradientUnits="userSpaceOnUse"
       y2="31.062500"
       x2="33.218750"
       y1="34.000000"
       x1="30.656250"
       id="linearGradient4446"
       xlink:href="#linearGradient4440"
       inkscape:collect="always" />
    <linearGradient
       id="linearGradient4440">
      <stop
         id="stop4442"
         offset="0"
         style="stop-color:#7d7d7d;stop-opacity:1;" />
      <stop
         style="stop-color:#b1b1b1;stop-opacity:1.0000000;"
         offset="0.50000000"
         id="stop4448" />
      <stop
         id="stop4444"
         offset="1.0000000"
         style="stop-color:#686868;stop-opacity:1.0000000;" />
    </linearGradient>
    <linearGradient
       id="linearGradient4454">
      <stop
         id="stop4456"
         offset="0.0000000"
         style="stop-color:#729fcf;stop-opacity:0.20784314;" />
      <stop
         id="stop4458"
         offset="1.0000000"
         style="stop-color:#729fcf;stop-opacity:0.67619050;" />
    </linearGradient>
    <linearGradient
       id="linearGradient4467">
      <stop
         id="stop4469"
         offset="0"
         style="stop-color:#ffffff;stop-opacity:1;" />
      <stop
         id="stop4471"
         offset="1.0000000"
         style="stop-color:#ffffff;stop-opacity:0.24761905;" />
    </linearGradient>
    <linearGradient
       id="linearGradient4477"
       inkscape:collect="always">
      <stop
         id="stop4479"
         offset="0"
         style="stop-color:#000000;stop-opacity:1;" />
      <stop
         id="stop4481"
         offset="1"
         style="stop-color:#000000;stop-opacity:0;" />
    </linearGradient>
    <linearGradient
       id="linearGradient4487"
       inkscape:collect="always">
      <stop
         id="stop4489"
         offset="0"
         style="stop-color:#ffffff;stop-opacity:1;" />
      <stop
         id="stop4491"
         offset="1"
         style="stop-color:#ffffff;stop-opacity:0;" />
    </linearGradient>
    <linearGradient
       id="linearGradient2366">
      <stop
         style="stop-color:#ffffff;stop-opacity:1;"
         offset="0"
         id="stop2368" />
      <stop
         id="stop2374"
         offset="0.50000000"
         style="stop-color:#ffffff;stop-opacity:0.21904762;" />
      <stop
         style="stop-color:#ffffff;stop-opacity:1.0000000;"
         offset="1.0000000"
         id="stop2370" />
    </linearGradient>
    <linearGradient
       id="linearGradient2846">
      <stop
         style="stop-color:#8a8a8a;stop-opacity:1.0000000;"
         offset="0.0000000"
         id="stop2848" />
      <stop
         style="stop-color:#484848;stop-opacity:1.0000000;"
         offset="1.0000000"
         id="stop2850" />
    </linearGradient>
    <inkscape:perspective
       id="perspective3089"
       inkscape:persp3d-origin="24 : 16 : 1"
       inkscape:vp_z="48 : 24 : 1"
       inkscape:vp_y="0 : 1000 : 0"
       inkscape:vp_x="0 : 24 : 1"
       sodipodi:type="inkscape:persp3d" />
  </defs>
  <sodipodi:namedview
     id="base"
     pagecolor="#ffffff"
     bordercolor="#666666"
     borderopacity="0.25490196"
     inkscape:pageopacity="0.0"
     inkscape:pageshadow="2"
     inkscape:zoom="11.313708"
     inkscape:cx="17.222401"
     inkscape:cy="27.676472"
     inkscape:current-layer="layer1"
     showgrid="false"
     inkscape:grid-bbox="true"
     inkscape:document-units="px"
     inkscape:window-width="1280"
     inkscape:window-height="749"
     inkscape:window-x="0"
     inkscape:window-y="24"
     inkscape:showpageshadow="false" />
  <metadata
     id="metadata4">
    <rdf:RDF>
      <cc:Work
         rdf:about="">
        <dc:format>image/svg+xml</dc:format>
        <dc:type
           rdf:resource="http://purl.org/dc/dcmitype/StillImage" />
        <dc:title>Media CD-ROM</dc:title>
        <dc:creator>
          <cc:Agent>
            <dc:title>Jakub Steiner</dc:title>
          </cc:Agent>
        </dc:creator>
        <dc:source>http://jimmac.musichall.cz</dc:source>
        <dc:subject>
          <rdf:Bag>
            <rdf:li>cdrom</rdf:li>
            <rdf:li>media</rdf:li>
            <rdf:li>removable</rdf:li>
            <rdf:li>cd</rdf:li>
            <rdf:li>audio</rdf:li>
          </rdf:Bag>
        </dc:subject>
        <cc:license
           rdf:resource="http://creativecommons.org/licenses/by-sa/2.0/" />
      </cc:Work>
      <cc:License
         rdf:about="http://creativecommons.org/licenses/by-sa/2.0/">
        <cc:permits
           rdf:resource="http://web.resource.org/cc/Reproduction" />
        <cc:permits
           rdf:resource="http://web.resource.org/cc/Distribution" />
        <cc:requires
           rdf:resource="http://web.resource.org/cc/Notice" />
        <cc:requires
           rdf:resource="http://web.resource.org/cc/Attribution" />
        <cc:permits
           rdf:resource="http://web.resource.org/cc/DerivativeWorks" />
        <cc:requires
           rdf:resource="http://web.resource.org/cc/ShareAlike" />
      </cc:License>
    </rdf:RDF>
  </metadata>
  <g
     id="layer1"
     inkscape:label="cd"
     inkscape:groupmode="layer">
    <path
       sodipodi:type="arc"
       style="opacity:0.55;fill:url(#radialGradient23425);fill-opacity:1;fill-rule:evenodd;stroke:none;stroke-width:2;stroke-linecap:butt;stroke-linejoin:miter;marker:none;marker-start:none;marker-mid:none;marker-end:none;stroke-miterlimit:4;stroke-dasharray:none;stroke-dashoffset:0;stroke-opacity:1;visibility:visible;display:inline;overflow:visible"
       id="path23417"
       sodipodi:cx="23.334524"
       sodipodi:cy="41.63604"
       sodipodi:rx="22.627417"
       sodipodi:ry="5.6568542"
       d="M 45.961941,41.63604 A 22.627417,5.6568542 0 1 1 0.70710754,41.63604 A 22.627417,5.6568542 0 1 1 45.961941,41.63604 z"
       inkscape:r_cx="true"
       inkscape:r_cy="true"
       transform="matrix(1,0,0,1.066291,-0.5026019,-2.885106)" />
    <path
       inkscape:r_cy="true"
       inkscape:r_cx="true"
       id="path3040"
       d="M 22.844404,4.1666669 C 11.296784,4.1666669 2.01107,13.452381 2.01107,25 C 2.01107,36.54762 11.296784,45.833335 22.844404,45.833335 C 34.392024,45.833335 43.677739,36.54762 43.677739,25 C 43.677739,13.452381 34.392024,4.1666669 22.844404,4.1666669 L 22.844404,4.1666669 z M 22.844404,30.000001 C 20.106309,30.000001 17.844404,27.738096 17.844404,25 C 17.844404,22.261905 20.106309,20 22.844404,20 C 25.582499,20 27.844404,22.261905 27.844404,25 C 27.844404,27.738096 25.582499,30.000001 22.844404,30.000001 z"
       style="fill:url(#linearGradient23400);fill-rule:nonzero;stroke:none;stroke-miterlimit:4" />
    <path
       inkscape:r_cy="true"
       inkscape:r_cx="true"
       id="path3049"
       d="M 22.844404,4.1666665 C 11.296784,4.1666665 2.0110701,13.452381 2.0110701,25 C 2.0110701,36.54762 11.296784,45.833335 22.844404,45.833335 C 34.392024,45.833335 43.677739,36.54762 43.677739,25 C 43.677739,13.452381 34.392024,4.1666665 22.844404,4.1666665 L 22.844404,4.1666665 z M 22.844404,30.000001 C 20.106309,30.000001 17.844404,27.738096 17.844404,25 C 17.844404,22.261905 20.106309,20 22.844404,20 C 25.582499,20 27.844404,22.261905 27.844404,25 C 27.844404,27.738096 25.582499,30.000001 22.844404,30.000001 z"
       style="fill:url(#linearGradient23397);fill-rule:nonzero;stroke:#808080;stroke-miterlimit:4;stroke-opacity:1" />
    <path
       inkscape:r_cy="true"
       inkscape:r_cx="true"
       id="path3051"
       d="M 22.844404,14.895835 C 17.201818,14.895835 12.740238,19.488638 12.740238,25 C 12.740238,30.642588 17.333042,35.104166 22.844404,35.104166 C 28.48699,35.104166 32.94857,30.511364 32.94857,25 C 32.94857,19.357414 28.355766,14.895835 22.844404,14.895835 L 22.844404,14.895835 z M 22.844404,30.511364 C 19.826277,30.511364 17.333042,28.018129 17.333042,25 C 17.333042,21.981873 19.826277,19.488638 22.844404,19.488638 C 25.862531,19.488638 28.355766,21.981873 28.355766,25 C 28.355766,28.018129 25.862531,30.511364 22.844404,30.511364 z"
       style="opacity:0.10999995;fill-rule:nonzero;stroke:none;stroke-miterlimit:4" />
    <path
       inkscape:r_cy="true"
       inkscape:r_cx="true"
       style="fill:url(#linearGradient23393);fill-opacity:1;fill-rule:nonzero;stroke:none;stroke-miterlimit:4;stroke-opacity:1"
       d="M 28.419509,5.6692337 L 24.822916,19.663896 C 25.94762,19.963413 26.847059,20.659366 27.458044,21.622438 L 39.850264,14.073153 C 37.315016,9.9434382 33.246054,6.9050853 28.419509,5.6692337 z"
       id="path3916" />
    <path
       inkscape:r_cy="true"
       inkscape:r_cx="true"
       id="path4214"
       d="M 15.805222,43.766057 L 20.540477,30.114558 C 19.444213,29.723566 18.605052,28.956005 18.075334,27.945951 L 5.1042733,34.450599 C 7.2913306,38.774811 11.096653,42.137482 15.805222,43.766057 z"
       style="fill:url(#linearGradient23390);fill-opacity:1;fill-rule:nonzero;stroke:none;stroke-miterlimit:4;stroke-opacity:1" />
    <path
       inkscape:r_cy="true"
       inkscape:r_cx="true"
       style="opacity:0.54644811;fill:none;fill-rule:nonzero;stroke:url(#linearGradient23387);stroke-miterlimit:4;stroke-opacity:1"
       d="M 22.8444,5.2023655 C 11.870856,5.2023655 3.0467692,14.026454 3.0467692,24.999997 C 3.0467692,35.973541 11.870856,44.797628 22.8444,44.797628 C 33.817944,44.797628 42.642031,35.973541 42.642031,24.999997 C 42.642031,14.026454 33.817944,5.2023655 22.8444,5.2023655 L 22.8444,5.2023655 z"
       id="path5264"
       sodipodi:nodetypes="cccccc" />
    <path
       inkscape:r_cy="true"
       inkscape:r_cx="true"
       sodipodi:type="arc"
       style="opacity:0.67213111;fill:none;fill-opacity:0.31638417;fill-rule:nonzero;stroke:url(#linearGradient23353);stroke-width:0.93053865;stroke-linecap:butt;stroke-linejoin:miter;marker:none;marker-start:none;marker-mid:none;marker-end:none;stroke-miterlimit:4;stroke-dashoffset:0;stroke-opacity:1;visibility:visible;display:inline;overflow:visible"
       id="path6026"
       sodipodi:cx="24.306795"
       sodipodi:cy="24.930641"
       sodipodi:rx="6.0987959"
       sodipodi:ry="6.0987959"
       d="M 30.405591,24.930641 A 6.0987959,6.0987959 0 1 1 18.207999,24.930641 A 6.0987959,6.0987959 0 1 1 30.405591,24.930641 z"
       transform="translate(-1.4142135,8.838865e-2)" />
    <path
       inkscape:r_cy="true"
       inkscape:r_cx="true"
       style="opacity:0.1142857;fill:url(#radialGradient23383);fill-opacity:1;fill-rule:nonzero;stroke:none;stroke-miterlimit:4;stroke-opacity:1"
       d="M 22.844404,4.1666665 C 11.296784,4.1666665 2.0110701,13.452381 2.0110701,25 C 2.0110701,36.54762 11.296784,45.833335 22.844404,45.833335 C 34.392024,45.833335 43.677739,36.54762 43.677739,25 C 43.677739,13.452381 34.392024,4.1666665 22.844404,4.1666665 L 22.844404,4.1666665 z M 22.844404,30.000001 C 20.106309,30.000001 17.844404,27.738096 17.844404,25 C 17.844404,22.261905 20.106309,20 22.844404,20 C 25.582499,20 27.844404,22.261905 27.844404,25 C 27.844404,27.738096 25.582499,30.000001 22.844404,30.000001 z"
       id="path3390" />
    <path
       inkscape:r_cy="true"
       inkscape:r_cx="true"
       id="path3404"
       d="M 22.844404,4.1666665 C 11.296784,4.1666665 2.0110701,13.452381 2.0110701,25 C 2.0110701,36.54762 11.296784,45.833335 22.844404,45.833335 C 34.392024,45.833335 43.677739,36.54762 43.677739,25 C 43.677739,13.452381 34.392024,4.1666665 22.844404,4.1666665 L 22.844404,4.1666665 z M 22.844404,30.000001 C 20.106309,30.000001 17.844404,27.738096 17.844404,25 C 17.844404,22.261905 20.106309,20 22.844404,20 C 25.582499,20 27.844404,22.261905 27.844404,25 C 27.844404,27.738096 25.582499,30.000001 22.844404,30.000001 z"
       style="opacity:0.09714284;fill:url(#radialGradient23380);fill-opacity:1;fill-rule:nonzero;stroke:none;stroke-miterlimit:4;stroke-opacity:1" />
    <path
       inkscape:r_cy="true"
       inkscape:r_cx="true"
       style="opacity:0.71428576;fill:url(#radialGradient23377);fill-opacity:1;fill-rule:nonzero;stroke:none;stroke-miterlimit:4;stroke-opacity:1"
       d="M 22.844404,4.1666665 C 11.296784,4.1666665 2.0110701,13.452381 2.0110701,25 C 2.0110701,36.54762 11.296784,45.833335 22.844404,45.833335 C 34.392024,45.833335 43.677739,36.54762 43.677739,25 C 43.677739,13.452381 34.392024,4.1666665 22.844404,4.1666665 L 22.844404,4.1666665 z M 22.844404,30.000001 C 20.106309,30.000001 17.844404,27.738096 17.844404,25 C 17.844404,22.261905 20.106309,20 22.844404,20 C 25.582499,20 27.844404,22.261905 27.844404,25 C 27.844404,27.738096 25.582499,30.000001 22.844404,30.000001 z"
       id="path3419" />
    <path
       inkscape:r_cy="true"
       inkscape:r_cx="true"
       id="path3431"
       d="M 22.844404,4.1666665 C 11.296784,4.1666665 2.0110701,13.452381 2.0110701,25 C 2.0110701,36.54762 11.296784,45.833335 22.844404,45.833335 C 34.392024,45.833335 43.677739,36.54762 43.677739,25 C 43.677739,13.452381 34.392024,4.1666665 22.844404,4.1666665 L 22.844404,4.1666665 z M 22.844404,30.000001 C 20.106309,30.000001 17.844404,27.738096 17.844404,25 C 17.844404,22.261905 20.106309,20 22.844404,20 C 25.582499,20 27.844404,22.261905 27.844404,25 C 27.844404,27.738096 25.582499,30.000001 22.844404,30.000001 z"
       style="opacity:0.62285713;fill:url(#radialGradient23374);fill-opacity:1;fill-rule:nonzero;stroke:none;stroke-miterlimit:4;stroke-opacity:1" />
    <path
       inkscape:r_cy="true"
       inkscape:r_cx="true"
       style="opacity:0.37142861;fill:url(#radialGradient23371);fill-opacity:1;fill-rule:nonzero;stroke:none;stroke-miterlimit:4;stroke-opacity:1"
       d="M 22.844404,4.1666665 C 11.296784,4.1666665 2.0110701,13.452381 2.0110701,25 C 2.0110701,36.54762 11.296784,45.833335 22.844404,45.833335 C 34.392024,45.833335 43.677739,36.54762 43.677739,25 C 43.677739,13.452381 34.392024,4.1666665 22.844404,4.1666665 L 22.844404,4.1666665 z M 22.844404,30.000001 C 20.106309,30.000001 17.844404,27.738096 17.844404,25 C 17.844404,22.261905 20.106309,20 22.844404,20 C 25.582499,20 27.844404,22.261905 27.844404,25 C 27.844404,27.738096 25.582499,30.000001 22.844404,30.000001 z"
       id="path3441" />
    <path
       inkscape:r_cy="true"
       inkscape:r_cx="true"
       id="path3445"
       d="M 22.844404,4.1666665 C 11.296784,4.1666665 2.0110701,13.452381 2.0110701,25 C 2.0110701,36.54762 11.296784,45.833335 22.844404,45.833335 C 34.392024,45.833335 43.677739,36.54762 43.677739,25 C 43.677739,13.452381 34.392024,4.1666665 22.844404,4.1666665 L 22.844404,4.1666665 z M 22.844404,30.000001 C 20.106309,30.000001 17.844404,27.738096 17.844404,25 C 17.844404,22.261905 20.106309,20 22.844404,20 C 25.582499,20 27.844404,22.261905 27.844404,25 C 27.844404,27.738096 25.582499,30.000001 22.844404,30.000001 z"
       style="opacity:0.23428572;fill:url(#radialGradient23368);fill-opacity:1;fill-rule:nonzero;stroke:none;stroke-miterlimit:4;stroke-opacity:1" />
  </g>
  <g
     inkscape:groupmode="layer"
     id="layer2"
     inkscape:label="magnifier"
     style="display:inline">
    <g
       id="g3122"
       inkscape:label="Layer 1"
       transform="translate(5.5805053,1.7975938)">
      <g
         id="g1772">
        <path
           style="opacity:1;fill:#dcdcdc;fill-opacity:1;fill-rule:evenodd;stroke:url(#linearGradient2852);stroke-width:1.63267624;stroke-linecap:round;stroke-linejoin:miter;marker:none;marker-start:none;marker-mid:none;marker-end:none;stroke-miterlimit:10;stroke-dasharray:none;stroke-dashoffset:0;stroke-opacity:1;visibility:visible;display:inline;overflow:visible"
           d="M 20.336652,-0.66402985 C 13.692373,-0.66402985 8.2999146,4.7284284 8.2999146,11.372708 C 8.2999146,18.016986 13.692373,23.409444 20.336652,23.409444 C 23.177143,23.409444 25.68448,22.279313 27.743872,20.631735 C 27.576216,21.45369 27.680171,22.293283 28.361142,22.884767 L 37.311536,30.662351 C 38.31842,31.536917 39.831948,31.422329 40.706514,30.415444 C 41.581079,29.408558 41.46649,27.895031 40.459606,27.020467 L 31.509211,19.242881 C 30.961019,18.766728 30.290519,18.625756 29.626543,18.718203 C 31.24836,16.667219 32.373387,14.188507 32.373387,11.372708 C 32.373387,4.7284284 26.980929,-0.66402985 20.336652,-0.66402985 z M 20.274923,0.33694976 C 26.511301,0.33694976 31.1255,4.2463506 31.1255,11.187527 C 31.1255,18.269348 26.377116,22.038104 20.274923,22.038104 C 14.313251,22.038104 9.4243482,17.566131 9.4243482,11.187527 C 9.4243482,4.6697992 14.17922,0.33694967 20.274923,0.33694976 z"
           id="path2844"
           sodipodi:nodetypes="csscccscccscczzzz" />
        <path
           id="path4430"
           d="M 20.316516,-0.71562218 C 13.650761,-0.71562218 8.240871,4.6942673 8.240871,11.360025 C 8.240871,18.02578 13.650761,23.43567 20.316516,23.43567 C 23.166191,23.43567 25.681633,22.301885 27.747683,20.648982 C 27.579484,21.473594 27.683775,22.315901 28.366946,22.909296 L 37.346275,30.712021 C 38.356413,31.589414 39.874833,31.474456 40.752225,30.464314 C 41.629618,29.454176 41.514658,27.935757 40.50452,27.058364 L 31.525192,19.255638 C 30.975228,18.777947 30.302561,18.636518 29.636439,18.729265 C 31.263498,16.67165 32.392163,14.184925 32.392163,11.360025 C 32.392163,4.6942673 26.982273,-0.71562218 20.316516,-0.71562218 z M 20.25459,1.8852862 C 25.382095,1.8852864 29.543549,6.0467395 29.543549,11.174245 C 29.543549,16.301749 25.382095,20.463203 20.25459,20.463203 C 15.127085,20.463203 10.965632,16.301749 10.965632,11.174245 C 10.965632,6.0467395 15.127085,1.8852862 20.25459,1.8852862 z"
           style="opacity:1;fill:#dcdcdc;fill-opacity:1;fill-rule:evenodd;stroke:none;stroke-width:1.00000036;stroke-linecap:round;stroke-linejoin:miter;marker:none;marker-start:none;marker-mid:none;marker-end:none;stroke-miterlimit:10;stroke-dasharray:none;stroke-dashoffset:0;stroke-opacity:1;visibility:visible;display:inline;overflow:visible" />
        <path
           sodipodi:nodetypes="ccccc"
           id="path4438"
           d="M 37.381321,30.711203 C 36.990563,28.855515 38.522013,26.783458 40.307118,26.802273 C 40.307118,26.802273 31.523024,19.244527 31.523024,19.244527 C 29.119082,19.198236 28.037669,21.099749 28.439869,22.999617 L 37.381321,30.711203 z"
           style="opacity:1;fill:url(#linearGradient4446);fill-opacity:1;fill-rule:evenodd;stroke:none;stroke-width:1;stroke-linecap:round;stroke-linejoin:miter;marker:none;marker-start:none;marker-mid:none;marker-end:none;stroke-miterlimit:10;stroke-dasharray:none;stroke-dashoffset:0;stroke-opacity:1;visibility:visible;display:inline;overflow:visible" />
        <path
           transform="matrix(1.0169469,0,0,1.0169469,2.3340255,-8.2727768)"
           d="M 28.549437,18.920233 A 11.048544,11.048544 0 1 1 6.4523487,18.920233 A 11.048544,11.048544 0 1 1 28.549437,18.920233 z"
           sodipodi:ry="11.048544"
           sodipodi:rx="11.048544"
           sodipodi:cy="18.920233"
           sodipodi:cx="17.500893"
           id="path4450"
           style="opacity:1;fill:none;fill-opacity:1;fill-rule:evenodd;stroke:url(#linearGradient2372);stroke-width:0.8027336;stroke-linecap:round;stroke-linejoin:miter;marker:none;marker-start:none;marker-mid:none;marker-end:none;stroke-miterlimit:10;stroke-dasharray:none;stroke-dashoffset:0;stroke-opacity:1;visibility:visible;display:inline;overflow:visible"
           sodipodi:type="arc" />
        <rect
           transform="matrix(0.7529858,0.6580368,-0.648902,0.760872,0,0)"
           ry="1.5411937"
           rx="1.7442373"
           y="-5.693655"
           x="34.765789"
           height="3.6249297"
           width="15.549965"
           id="rect4495"
           style="opacity:0.43315507;fill:none;fill-opacity:1;fill-rule:evenodd;stroke:#ffffff;stroke-width:0.81636322;stroke-linecap:round;stroke-linejoin:miter;marker:none;marker-start:none;marker-mid:none;marker-end:none;stroke-miterlimit:10;stroke-dasharray:none;stroke-dashoffset:0;stroke-opacity:1;visibility:visible;display:inline;overflow:visible" />
        <path
           transform="matrix(1.1417414,0,0,1.1417414,4.9102869e-2,-10.004983)"
           d="M 25.897786,18.478292 A 8.3085051,8.3085051 0 1 1 9.280776,18.478292 A 8.3085051,8.3085051 0 1 1 25.897786,18.478292 z"
           sodipodi:ry="8.3085051"
           sodipodi:rx="8.3085051"
           sodipodi:cy="18.478292"
           sodipodi:cx="17.589281"
           id="path4452"
           style="fill:url(#radialGradient4460);fill-opacity:1;fill-rule:evenodd;stroke:#3063a3;stroke-width:0.71499395;stroke-linecap:round;stroke-linejoin:miter;marker:none;marker-start:none;marker-mid:none;marker-end:none;stroke-miterlimit:10;stroke-dashoffset:0;stroke-opacity:1;visibility:visible"
           sodipodi:type="arc" />
        <path
           id="path4462"
           d="M 19.952439,2.8079679 C 15.701287,2.8079679 12.258825,6.2504287 12.258825,10.501582 C 12.258825,11.729333 12.601938,12.858979 13.113672,13.889303 C 14.136036,14.266136 15.222074,14.522523 16.374751,14.522523 C 21.412334,14.522523 25.435512,10.553785 25.746393,5.5941318 C 24.333341,3.9242876 22.30958,2.8079679 19.952439,2.8079679 z"
           style="opacity:0.83422457;fill:url(#radialGradient4473);fill-opacity:1;fill-rule:evenodd;stroke:none;stroke-width:1;stroke-linecap:round;stroke-linejoin:miter;marker:none;marker-start:none;marker-mid:none;marker-end:none;stroke-miterlimit:10;stroke-dasharray:none;stroke-dashoffset:0;stroke-opacity:1;visibility:visible;display:inline;overflow:visible" />
      </g>
    </g>
  </g>
</svg>
